<svg width="1368" height="2" viewBox="0 0 1368 2" fill="none" xmlns="http://www.w3.org/2000/svg">
<path d="M766.272 0.28484C796.467 0.384579 820.237 -0.0562457 857.04 0.00606248C893.842 0.0683717 899.354 0.302205 941.503 0.249593C983.649 0.19699 1025.82 0.356925 1044.59 0.260854C1063.35 0.164754 1065.33 0.455298 1091.98 0.390767C1118.63 0.326245 1134.78 0.364169 1158.08 0.458608C1181.39 0.553047 1252.99 0.633672 1279.03 0.517659C1305.07 0.401646 1334.76 0.602944 1352.62 0.650685C1358.19 0.665556 1362.56 0.685908 1365.92 0.707082C1367.34 0.71606 1368 0.734841 1368 0.75338C1368 0.753392 1368 0.753404 1368 0.753416C1368 0.7765 1366.98 0.799197 1365.15 0.802113C1356.28 0.816272 1343.03 0.853624 1327.37 0.937337C1298.16 1.09343 1294.97 0.92094 1255.54 1.00115C1216.11 1.08136 1192.42 1.24171 1146.02 1.13802C1099.63 1.03434 1088.97 1.46825 1023.48 1.22234C957.991 0.976449 951.099 1.43025 885.836 1.49059C820.572 1.55093 738.19 1.30055 698.848 1.32131C659.506 1.34207 606.667 1.39493 550.896 1.33504C495.124 1.27515 426.275 1.42633 364.712 1.31948C303.149 1.21263 216.113 1.07767 175.903 0.987233C135.695 0.896801 125.894 0.876403 87.1917 0.93166C64.9451 0.963424 34.2983 0.933484 8.41173 0.81667C-4.61606 0.757881 -1.66396 0.676026 11.449 0.636861C30.6243 0.579591 46.3652 0.617851 56.2454 0.515553C75.9881 0.311107 84.3791 0.232679 109.303 0.351674C134.225 0.470655 145.969 0.200251 160.497 0.231374C175.026 0.262512 174.787 0.422007 248.66 0.299123C322.535 0.176234 363.032 0.144878 391.008 0.115376C418.984 0.0858747 477.399 0.2243 522.992 0.174336C568.585 0.124376 661.275 0.170165 698.639 0.0883684C736.003 0.00657815 736.079 0.185103 766.272 0.28484Z" fill="#717171"/>
</svg>
