<svg width="57" height="57" viewBox="0 0 57 57" fill="none" xmlns="http://www.w3.org/2000/svg">
<path d="M52.25 23.75V38M14.25 29.6875V38C14.25 39.8897 15.7513 41.7019 18.4237 43.0381C21.0961 44.3743 24.7207 45.125 28.5 45.125C32.2793 45.125 35.9039 44.3743 38.5763 43.0381C41.2487 41.7019 42.75 39.8897 42.75 38V29.6875M50.8725 25.9397C51.2977 25.7522 51.6585 25.444 51.9102 25.0534C52.1619 24.6628 52.2936 24.2069 52.2888 23.7422C52.284 23.2776 52.1429 22.8245 51.8832 22.4392C51.6234 22.0539 51.2563 21.7532 50.8274 21.5745L30.4712 12.3025C29.8524 12.0202 29.1802 11.8741 28.5 11.8741C27.8198 11.8741 27.1476 12.0202 26.5287 12.3025L6.17499 21.565C5.75217 21.7502 5.39247 22.0546 5.13989 22.4409C4.88731 22.8273 4.75279 23.2789 4.75279 23.7405C4.75279 24.2021 4.88731 24.6537 5.13989 25.0401C5.39247 25.4264 5.75217 25.7308 6.17499 25.916L26.5287 35.1975C27.1476 35.4798 27.8198 35.6258 28.5 35.6258C29.1802 35.6258 29.8524 35.4798 30.4712 35.1975L50.8725 25.9397Z" stroke="currentColor" stroke-width="2" stroke-linecap="round" stroke-linejoin="round"/>
</svg>
