<svg width="57" height="57" viewBox="0 0 57 57" fill="none" xmlns="http://www.w3.org/2000/svg">
<path d="M34.9125 14.9625C34.4773 15.4065 34.2336 16.0033 34.2336 16.625C34.2336 17.2467 34.4773 17.8436 34.9125 18.2875L38.7125 22.0875C39.1565 22.5227 39.7533 22.7664 40.375 22.7664C40.9967 22.7664 41.5935 22.5227 42.0375 22.0875L49.4142 14.7131C50.1742 13.9484 51.4639 14.1906 51.7489 15.2309C52.4664 17.8407 52.4259 20.6009 51.632 23.1885C50.838 25.7762 49.3236 28.0842 47.2658 29.8425C45.208 31.6008 42.692 32.7366 40.0122 33.1172C37.3324 33.4977 34.5997 33.1072 32.1337 31.9913L13.3475 50.7775C12.4027 51.722 11.1213 52.2525 9.78534 52.2523C8.44937 52.2521 7.1682 51.7212 6.22368 50.7763C5.27916 49.8315 4.74866 48.5501 4.74889 47.2142C4.74911 45.8782 5.28004 44.597 6.22487 43.6525L25.0111 24.8663C23.8952 22.4003 23.5047 19.6676 23.8852 16.9878C24.2658 14.308 25.4016 11.792 27.1599 9.73422C28.9182 7.67643 31.2262 6.16197 33.8138 5.36805C36.4015 4.57412 39.1617 4.53357 41.7715 5.25113C42.8117 5.53613 43.054 6.82338 42.2916 7.58813L34.9125 14.9625Z" stroke="black" stroke-width="2" stroke-linecap="round" stroke-linejoin="round"/>
</svg>
